<?xml version="1.0" encoding="UTF-8"?><svg id="Layer_2" xmlns="http://www.w3.org/2000/svg" viewBox="0 0 417.45 104.17"><defs><style>.cls-1{fill:#1cd31c;}.cls-2{fill:#64c1d2;}</style></defs><g id="Layer_6"><path class="cls-1" d="M58.06,101.56l-26.05-30.52-8.68,9.09v19.36H0V18.13h23.33v30.66L56.57,14.19l15.33,15.2-28.02,25.87,28.7,33.74-14.52,12.56Z"/><path class="cls-2" d="M134.45.14l-.53-.14-59.94,65.99,17.38,14.69,8.32-9.49,3.76.96-6.58,26.37,22.64,5.65,6.54-26.22,4.12,1.06,2.59,12.29,22.3-4.5L134.45.14ZM118.51,59.67l-10.83-2.84,7.88-7.96,7.88-7.96,2.96,10.8,2.96,10.8-10.83-2.84Z"/><path class="cls-1" d="M232.39,18.13v60.51h-42.74v20.89h-23.33V18.13h66.07ZM209.05,57.88v-18.99h-19.4v18.99h19.4Z"/><path class="cls-1" d="M246.5,99.52V18.13h23.33v60.64h30.39v20.76h-53.72Z"/><path class="cls-1" d="M311.63,99.52V18.13h23.33v81.4h-23.33Z"/><path class="cls-1" d="M395.2,18.13h22.25v81.37h-.41l-45.31-36.46v36.49h-22.25V18.12h.41l45.31,36.5V18.13Z"/></g></svg>